# Blender v2.73 (sub 0) OBJ File: 'boss_pig.blend'
# www.blender.org
o Sphere.001
v 0.145697 0.926936 -0.353553
v 0.270598 0.707107 -0.653281
v 0.353553 0.382683 -0.853553
v 0.382683 -0.000000 -0.923879
v 0.353553 -0.382684 -0.853553
v 0.270598 -0.707107 -0.653281
v 0.146446 -0.923880 -0.353553
v 0.267695 0.930449 -0.270598
v 0.653281 0.382683 -0.653281
v 0.707107 -0.000000 -0.707106
v 0.653281 -0.382684 -0.653281
v 0.500000 -0.707107 -0.500000
v 0.270598 -0.923880 -0.270598
v 0.350668 0.927741 -0.146447
v 0.653281 0.707107 -0.270598
v 0.853553 0.382683 -0.353553
v 0.923879 -0.000000 -0.382683
v 0.853553 -0.382684 -0.353553
v 0.653281 -0.707107 -0.270598
v 0.353553 -0.923879 -0.146446
v 0.382154 0.924438 0.000000
v 0.707106 0.707107 0.000000
v 0.923879 0.382683 0.000000
v 1.000000 -0.000000 0.000000
v 0.923879 -0.382683 0.000000
v 0.707106 -0.707107 0.000000
v 0.382683 -0.923879 0.000000
v 0.353553 0.923880 0.146447
v 0.653281 0.707107 0.270598
v 0.853553 0.382683 0.353554
v 0.923879 -0.000000 0.382684
v 0.853553 -0.382683 0.353554
v 0.653281 -0.707107 0.270598
v 0.353553 -0.923879 0.146447
v 0.270598 0.923880 0.270598
v 0.499999 0.707107 0.500000
v 0.653281 0.382683 0.653282
v 0.707106 -0.000000 0.707107
v 0.653281 -0.382684 0.653282
v 0.499999 -0.707107 0.500000
v 0.270598 -0.923879 0.270598
v 0.146446 0.923880 0.353553
v 0.270598 0.707107 0.653281
v 0.353553 0.382683 0.853553
v 0.382683 -0.000000 0.923879
v 0.353553 -0.382684 0.853553
v 0.270598 -0.707107 0.653281
v 0.146446 -0.923879 0.353553
v 0.336780 1.187945 -0.329997
v 0.554323 1.130048 -0.329997
v 0.416784 1.166015 -0.329997
v 0.700153 1.108141 -0.329997
v 0.680822 0.995466 -0.100602
v 0.442003 1.270433 -0.100602
v 0.532069 1.025409 -0.100602
v 0.358282 1.288293 -0.100602
v 0.500000 0.707107 -0.500000
v 0.000000 -1.000000 0.000000
v -0.000000 0.923880 -0.382683
v -0.000000 0.707107 -0.707107
v -0.000000 0.382683 -0.923879
v 0.000000 -0.000000 -1.000000
v 0.000000 -0.382684 -0.923879
v 0.000000 -0.707107 -0.707107
v 0.000000 -0.923880 -0.382683
v -0.145697 0.926936 -0.353553
v -0.270598 0.707107 -0.653281
v -0.353553 0.382683 -0.853553
v -0.382683 -0.000000 -0.923879
v -0.353553 -0.382684 -0.853553
v -0.270598 -0.707107 -0.653281
v -0.146446 -0.923880 -0.353553
v 0.000000 1.000000 0.000000
v -0.267695 0.930449 -0.270598
v -0.500000 0.707107 -0.500000
v -0.653281 0.382683 -0.653281
v -0.707107 -0.000000 -0.707106
v -0.653281 -0.382684 -0.653281
v -0.500000 -0.707107 -0.500000
v -0.270598 -0.923880 -0.270598
v -0.350668 0.927741 -0.146447
v -0.653281 0.707107 -0.270598
v -0.853553 0.382683 -0.353553
v -0.923879 -0.000000 -0.382683
v -0.853553 -0.382684 -0.353553
v -0.653281 -0.707107 -0.270598
v -0.353553 -0.923879 -0.146446
v -0.382154 0.924438 0.000000
v -0.707106 0.707107 0.000000
v -0.923879 0.382683 0.000000
v -1.000000 -0.000000 0.000000
v -0.923879 -0.382683 0.000000
v -0.707106 -0.707107 0.000000
v -0.382683 -0.923879 0.000000
v -0.353553 0.923880 0.146447
v -0.653281 0.707107 0.270598
v -0.853553 0.382683 0.353554
v -0.923879 -0.000000 0.382684
v -0.853553 -0.382683 0.353554
v -0.653281 -0.707107 0.270598
v -0.353553 -0.923879 0.146447
v -0.270598 0.923880 0.270598
v -0.499999 0.707107 0.500000
v -0.653281 0.382683 0.653282
v -0.707106 -0.000000 0.707107
v -0.653281 -0.382684 0.653282
v -0.499999 -0.707107 0.500000
v -0.270598 -0.923879 0.270598
v -0.146446 0.923880 0.353553
v -0.270598 0.707107 0.653281
v -0.353553 0.382683 0.853553
v -0.382683 -0.000000 0.923879
v -0.353553 -0.382684 0.853553
v -0.270598 -0.707107 0.653281
v -0.146446 -0.923879 0.353553
v 0.000000 0.923880 0.382683
v 0.000000 0.707107 0.707106
v 0.000000 0.382683 0.923879
v 0.000000 -0.000000 1.000000
v 0.000000 -0.382684 0.923879
v 0.000000 -0.707107 0.707106
v 0.000000 -0.923879 0.382683
v -0.336780 1.187945 -0.329997
v -0.554323 1.130048 -0.329997
v -0.416784 1.166015 -0.329997
v -0.700153 1.108141 -0.329997
v -0.680822 0.995466 -0.100602
v -0.442003 1.270433 -0.100602
v -0.532069 1.025409 -0.100602
v -0.358282 1.288293 -0.100602
v 0.382683 -0.069340 -1.207153
v 0.353553 -0.432156 -1.153145
v 0.000000 -0.069340 -1.207153
v 0.000000 -0.432156 -1.153145
v -0.382683 -0.069340 -1.207153
v -0.353553 -0.432156 -1.153145
v -0.000000 0.544895 -0.815493
v 0.312076 0.544895 -0.753417
v 0.576641 0.544895 -0.576640
v 0.753417 0.544895 -0.312075
v 0.815493 0.544895 0.000000
v 0.753417 0.544895 0.312076
v 0.576640 0.544895 0.576641
v 0.312075 0.544895 0.753417
v 0.000000 0.544895 0.815493
v -0.312076 0.544895 -0.753417
v -0.576641 0.544895 -0.576640
v -0.753417 0.544895 -0.312075
v -0.815493 0.544895 0.000000
v -0.753417 0.544895 0.312076
v -0.576640 0.544895 0.576641
v -0.312075 0.544895 0.753417
v -0.000000 0.191342 -0.961940
v 0.368118 0.191342 -0.888716
v 0.680194 0.191342 -0.680194
v 0.888716 0.191342 -0.368118
v 0.961939 0.191342 0.000000
v 0.888716 0.191342 0.368119
v 0.680193 0.191342 0.680194
v 0.368118 0.191342 0.888716
v 0.000000 0.191342 0.961939
v -0.368118 0.191342 -0.888716
v -0.680194 0.191342 -0.680194
v -0.888716 0.191342 -0.368118
v -0.961939 0.191342 0.000000
v -0.888716 0.191342 0.368119
v -0.680193 0.191342 0.680194
v -0.368118 0.191342 0.888716
vt 0.186833 0.067861
vt 0.121112 0.101948
vt 0.101346 0.054611
vt 0.177243 0.039345
vt 0.055986 0.143088
vt 0.027061 0.074527
vt 0.623503 0.721822
vt 0.537218 0.738232
vt 0.537644 0.664248
vt 0.623787 0.664676
vt 0.573907 0.982734
vt 0.573907 0.881546
vt 0.389395 0.866567
vt 0.375235 0.968649
vt 0.149307 0.513991
vt 0.187603 0.522442
vt 0.181591 0.577577
vt 0.142374 0.577577
vt 0.852222 0.482914
vt 0.775960 0.491608
vt 0.770054 0.463417
vt 0.837409 0.430700
vt 0.095779 0.000192
vt 0.175897 0.008691
vt 0.017081 0.002478
vt 0.902007 0.158939
vt 0.918730 0.236371
vt 0.842880 0.246264
vt 0.829932 0.171654
vt 0.204860 0.824315
vt 0.178133 0.926760
vt 0.727327 0.057933
vt 0.787160 0.106061
vt 0.745337 0.134354
vt 0.708354 0.078576
vt 0.768073 0.192110
vt 0.777439 0.250999
vt 0.845095 0.284324
vt 0.839281 0.323068
vt 0.775837 0.310829
vt 0.778234 0.280943
vt 0.704928 0.149935
vt 0.685606 0.091015
vt 0.716788 0.203780
vt 0.722762 0.255241
vt 0.724383 0.307417
vt 0.724211 0.281240
vt 0.769987 0.340806
vt 0.760635 0.369946
vt 0.720945 0.361231
vt 0.723361 0.334027
vt 0.735332 0.425891
vt 0.712771 0.418504
vt 0.665183 0.156719
vt 0.661188 0.095905
vt 0.669160 0.210059
vt 0.672958 0.259690
vt 0.677526 0.309603
vt 0.675216 0.284565
vt 0.682747 0.361427
vt 0.680069 0.335104
vt 0.689614 0.418076
vt 0.624456 0.155885
vt 0.636197 0.093470
vt 0.620739 0.212250
vt 0.622874 0.264795
vt 0.630969 0.316923
vt 0.626254 0.290896
vt 0.645049 0.369599
vt 0.637226 0.343037
vt 0.667005 0.424476
vt 0.580766 0.146311
vt 0.611652 0.083132
vt 0.566738 0.210071
vt 0.567212 0.271552
vt 0.580937 0.330845
vt 0.572577 0.301437
vt 0.606912 0.386927
vt 0.592328 0.359143
vt 0.646232 0.438090
vt 0.532088 0.123542
vt 0.589376 0.063479
vt 0.499832 0.200661
vt 0.498153 0.282173
vt 0.522451 0.355574
vt 0.508096 0.319492
vt 0.567955 0.417005
vt 0.543178 0.387553
vt 0.629572 0.459523
vt 0.657889 0.024632
vt 0.730919 0.000192
vt 0.734752 0.029413
vt 0.699565 0.485370
vt 0.755340 0.440984
vt 0.897001 0.645777
vt 0.895625 0.651282
vt 0.878580 0.653535
vt 0.883363 0.655003
vt 0.902508 0.675464
vt 0.885768 0.682896
vt 0.873440 0.655126
vt 0.880052 0.660834
vt 0.864846 0.604489
vt 0.200695 0.092319
vt 0.151792 0.140508
vt 0.106891 0.199833
vt 0.442177 0.735971
vt 0.350619 0.710376
vt 0.355080 0.657337
vt 0.447993 0.665151
vt 0.772579 0.968649
vt 0.758418 0.866567
vt 0.169779 0.453393
vt 0.205354 0.469898
vt 0.849541 0.537123
vt 0.774509 0.520945
vt 0.219990 0.109395
vt 0.190359 0.164647
vt 0.171006 0.222210
vt 0.164806 0.288562
vt 0.086126 0.281192
vt 0.969680 0.926759
vt 0.942953 0.824314
vt 0.202829 0.398631
vt 0.231436 0.424236
vt 0.290988 0.463264
vt 0.281882 0.490769
vt 0.242125 0.118826
vt 0.229699 0.175770
vt 0.224335 0.228911
vt 0.226764 0.282826
vt 0.166839 0.327024
vt 0.231746 0.311141
vt 0.240224 0.339227
vt 0.180407 0.364339
vt 0.252434 0.366958
vt 0.268197 0.393278
vt 0.875063 0.608567
vt 0.875063 0.563196
vt 0.938377 0.573604
vt 0.938377 0.598159
vt 0.265110 0.121121
vt 0.267495 0.177464
vt 0.271401 0.227308
vt 0.278050 0.275083
vt 0.282695 0.299614
vt 0.288633 0.324373
vt 0.295909 0.349576
vt 0.304819 0.375264
vt 0.327437 0.429341
vt 0.307104 0.442754
vt 0.287698 0.116755
vt 0.304037 0.171599
vt 0.315653 0.220456
vt 0.325186 0.266916
vt 0.329430 0.290722
vt 0.333601 0.314927
vt 0.337640 0.339859
vt 0.341781 0.365814
vt 0.349954 0.422664
vt 0.308919 0.105732
vt 0.340361 0.158256
vt 0.360598 0.208815
vt 0.373280 0.258292
vt 0.377180 0.283777
vt 0.379684 0.309695
vt 0.380655 0.336254
vt 0.380192 0.363791
vt 0.373635 0.422742
vt 0.327493 0.087472
vt 0.377602 0.135477
vt 0.410374 0.190880
vt 0.427699 0.249087
vt 0.430987 0.278995
vt 0.431144 0.309350
vt 0.427982 0.339543
vt 0.421526 0.370181
vt 0.397444 0.430247
vt 0.341021 0.060927
vt 0.416143 0.098049
vt 0.471177 0.161727
vt 0.496707 0.239459
vt 0.497769 0.278117
vt 0.494088 0.316806
vt 0.483021 0.353304
vt 0.467270 0.388479
vt 0.419417 0.446394
vt 0.262219 0.052157
vt 0.287574 0.519658
vt 0.358823 0.490615
vt 0.912244 0.669923
vt 0.900331 0.666667
vt 0.896468 0.665068
vt 0.909010 0.663260
vt 0.874241 0.606937
vt 0.885907 0.661206
vt 0.888080 0.662568
vt 0.822976 0.660529
vt 0.898794 0.693791
vt 0.543599 0.578311
vt 0.454438 0.572133
vt 0.460883 0.479115
vt 0.549553 0.492373
vt 0.256073 0.720320
vt 0.262166 0.649524
vt 0.709621 0.739088
vt 0.709930 0.665105
vt 0.464889 0.408170
vt 0.559334 0.419038
vt 0.908062 0.726470
vt 0.743251 0.765744
vt 0.573907 0.777708
vt 0.824853 0.360851
vt 0.404562 0.765744
vt 0.239751 0.726470
vt 0.085129 0.324152
vt 0.000192 0.282470
vt 0.002466 0.325381
vt 0.921816 0.276823
vt 0.999808 0.233283
vt 0.999808 0.273852
vt 0.868533 0.407153
vt 0.802614 0.391583
vt 0.953424 0.615949
vt 0.890109 0.605541
vt 0.890109 0.580986
vt 0.953424 0.570578
vt 0.960615 0.426771
vt 0.953460 0.593911
vt 0.939292 0.640407
vt 0.951399 0.694524
vt 0.960615 0.732637
vt 0.896712 0.696464
vt 0.962893 0.737433
vt 0.947382 0.680962
vt 0.945648 0.659548
vt 0.955176 0.562633
vt 0.859078 0.571600
vt 0.962893 0.493212
vn 0.109800 -0.826400 -0.552200
vn 0.163200 -0.548100 -0.820300
vn 0.018300 -0.982800 0.183900
vn 0.191500 0.191500 -0.962600
vn 0.163200 0.548100 -0.820300
vn 0.104700 0.824600 -0.555900
vn 0.312800 -0.826400 -0.468100
vn 0.464700 -0.548100 -0.695400
vn 0.545300 -0.191500 -0.816100
vn 0.545300 0.191500 -0.816100
vn 0.468100 -0.826400 -0.312800
vn 0.695400 -0.548100 -0.464700
vn 0.816100 -0.191500 -0.545300
vn 0.816100 0.191500 -0.545300
vn 0.552200 -0.826400 -0.109800
vn 0.820300 -0.548100 -0.163200
vn 0.962600 -0.191500 -0.191500
vn 0.962600 0.191500 -0.191500
vn 0.820300 0.548100 -0.163200
vn 0.554700 0.825200 -0.106900
vn 0.552200 -0.826400 0.109800
vn 0.820300 -0.548100 0.163200
vn 0.962600 -0.191500 0.191500
vn 0.962600 0.191500 0.191500
vn 0.820300 0.548100 0.163200
vn 0.552300 0.826300 0.110300
vn 0.468100 -0.826400 0.312800
vn 0.695400 -0.548100 0.464700
vn 0.816100 -0.191500 0.545300
vn 0.816100 0.191500 0.545300
vn 0.695400 0.548100 0.464700
vn 0.468100 0.826400 0.312800
vn 0.312800 -0.826400 0.468100
vn 0.464700 -0.548100 0.695400
vn 0.545300 -0.191500 0.816100
vn 0.545300 0.191500 0.816100
vn 0.464700 0.548100 0.695400
vn 0.312800 0.826400 0.468100
vn 0.109800 -0.826400 0.552200
vn 0.163200 -0.548100 0.820300
vn 0.191500 -0.191500 0.962600
vn 0.191500 0.191500 0.962600
vn 0.163200 0.548100 0.820300
vn 0.109800 0.826400 0.552200
vn 0.038800 -0.980000 -0.194900
vn 0.018400 0.980600 -0.195100
vn 0.110400 -0.980000 -0.165300
vn 0.085700 0.982100 -0.167600
vn 0.165300 -0.980000 -0.110400
vn 0.165200 0.982200 -0.089000
vn 0.194900 -0.980000 -0.038800
vn 0.193900 0.980800 -0.019600
vn 0.194900 -0.980000 0.038800
vn 0.193800 0.980200 0.041600
vn 0.165300 -0.980000 0.110400
vn 0.165300 0.980000 0.110400
vn 0.110400 -0.980000 0.165300
vn 0.110400 0.980000 0.165300
vn 0.038800 -0.980000 0.194900
vn 0.038800 0.980000 0.194900
vn 0.214700 0.883600 -0.416200
vn -0.156100 -0.887100 -0.434300
vn 0.537500 0.843200 0.008300
vn -0.633900 -0.773300 -0.008300
vn 0.000000 0.000000 -1.000000
vn -0.109800 -0.826400 -0.552200
vn -0.163200 -0.548100 -0.820300
vn -0.027100 0.961900 -0.272000
vn -0.191500 0.191500 -0.962600
vn -0.163200 0.548100 -0.820300
vn -0.104700 0.824600 -0.555900
vn -0.312800 -0.826400 -0.468100
vn -0.464700 -0.548100 -0.695400
vn -0.545300 -0.191500 -0.816100
vn -0.545300 0.191500 -0.816100
vn -0.464700 0.548100 -0.695400
vn -0.312500 0.821400 -0.477000
vn -0.468100 -0.826400 -0.312800
vn -0.695400 -0.548100 -0.464700
vn -0.816100 -0.191500 -0.545300
vn -0.816100 0.191500 -0.545300
vn -0.695400 0.548100 -0.464700
vn -0.476200 0.822100 -0.311900
vn -0.552200 -0.826400 -0.109800
vn -0.820300 -0.548100 -0.163200
vn -0.962600 -0.191500 -0.191500
vn -0.962600 0.191500 -0.191500
vn -0.820300 0.548100 -0.163200
vn -0.554700 0.825200 -0.106900
vn -0.552200 -0.826400 0.109800
vn -0.820300 -0.548100 0.163200
vn -0.962600 -0.191500 0.191500
vn -0.962600 0.191500 0.191500
vn -0.820300 0.548100 0.163200
vn -0.552300 0.826300 0.110300
vn -0.468100 -0.826400 0.312800
vn -0.695400 -0.548100 0.464700
vn -0.816100 -0.191500 0.545300
vn -0.816100 0.191500 0.545300
vn -0.695400 0.548100 0.464700
vn -0.468100 0.826400 0.312800
vn -0.312800 -0.826400 0.468100
vn -0.464700 -0.548100 0.695400
vn -0.545300 -0.191500 0.816100
vn -0.545300 0.191500 0.816100
vn -0.464700 0.548100 0.695400
vn -0.312800 0.826400 0.468100
vn -0.109800 -0.826400 0.552200
vn -0.163200 -0.548100 0.820300
vn -0.191500 -0.191500 0.962600
vn -0.191500 0.191500 0.962600
vn -0.163200 0.548100 0.820300
vn -0.109800 0.826400 0.552200
vn -0.038800 -0.980000 -0.194900
vn -0.018400 0.980600 -0.195100
vn -0.110400 -0.980000 -0.165300
vn -0.085700 0.982100 -0.167600
vn -0.165300 -0.980000 -0.110400
vn -0.165200 0.982200 -0.089000
vn -0.194900 -0.980000 -0.038800
vn -0.193900 0.980800 -0.019600
vn -0.194900 -0.980000 0.038800
vn -0.193800 0.980200 0.041600
vn -0.165300 -0.980000 0.110400
vn -0.165300 0.980000 0.110400
vn -0.110400 -0.980000 0.165300
vn -0.110400 0.980000 0.165300
vn -0.038800 -0.980000 0.194900
vn -0.038800 0.980000 0.194900
vn -0.214700 0.883600 -0.416200
vn 0.156100 -0.887100 -0.434300
vn -0.537500 0.843200 0.008300
vn 0.633900 -0.773300 -0.008300
vn 0.000000 -0.147200 -0.989100
vn -0.997000 -0.075400 0.015400
vn 0.027100 0.961900 -0.272000
vn -0.018300 -0.982800 0.183900
vn 0.997000 -0.075400 0.015400
vn 0.695400 0.548100 -0.464700
vn 0.464700 0.548100 -0.695400
vn 0.312500 0.821400 -0.477000
vn 0.476200 0.822100 -0.311900
vn 0.276600 0.589200 -0.759200
vn -0.067700 -0.311400 0.947800
vn 0.540000 0.547200 -0.639500
vn -0.602000 -0.088200 0.793600
vn -0.276600 0.589200 -0.759200
vn 0.067700 -0.311400 0.947800
vn -0.540000 0.547200 -0.639500
vn 0.602000 -0.088200 0.793600
s off
f 65/1/1 64/2/1 6/3/1 7/4/1
f 64/2/2 63/5/2 5/6/2 6/3/2
f 63/7/3 70/8/3 136/9/3 134/10/3
f 153/11/4 61/12/4 3/13/4 154/14/4
f 137/15/5 60/16/5 2/17/5 138/18/5
f 60/19/6 59/20/6 1/21/6 2/22/6
f 7/4/7 6/3/7 12/23/7 13/24/7
f 6/3/8 5/6/8 11/25/8 12/23/8
f 5/26/9 4/27/9 10/28/9 11/29/9
f 154/14/10 3/13/10 9/30/10 155/31/10
f 13/32/11 12/33/11 19/34/11 20/35/11
f 12/33/12 11/29/12 18/36/12 19/34/12
f 11/29/13 10/28/13 17/37/13 18/36/13
f 155/38/14 9/39/14 16/40/14 156/41/14
f 20/35/15 19/34/15 26/42/15 27/43/15
f 19/34/16 18/36/16 25/44/16 26/42/16
f 18/36/17 17/37/17 24/45/17 25/44/17
f 156/41/18 16/40/18 23/46/18 157/47/18
f 140/48/19 15/49/19 22/50/19 141/51/19
f 15/49/20 14/52/20 21/53/20 22/50/20
f 27/43/21 26/42/21 33/54/21 34/55/21
f 26/42/22 25/44/22 32/56/22 33/54/22
f 25/44/23 24/45/23 31/57/23 32/56/23
f 157/47/24 23/46/24 30/58/24 158/59/24
f 141/51/25 22/50/25 29/60/25 142/61/25
f 22/50/26 21/53/26 28/62/26 29/60/26
f 34/55/27 33/54/27 40/63/27 41/64/27
f 33/54/28 32/56/28 39/65/28 40/63/28
f 32/56/29 31/57/29 38/66/29 39/65/29
f 158/59/30 30/58/30 37/67/30 159/68/30
f 142/61/31 29/60/31 36/69/31 143/70/31
f 29/60/32 28/62/32 35/71/32 36/69/32
f 41/64/33 40/63/33 47/72/33 48/73/33
f 40/63/34 39/65/34 46/74/34 47/72/34
f 39/65/35 38/66/35 45/75/35 46/74/35
f 159/68/36 37/67/36 44/76/36 160/77/36
f 143/70/37 36/69/37 43/78/37 144/79/37
f 36/69/38 35/71/38 42/80/38 43/78/38
f 48/73/39 47/72/39 121/81/39 122/82/39
f 47/72/40 46/74/40 120/83/40 121/81/40
f 46/74/41 45/75/41 119/84/41 120/83/41
f 160/77/42 44/76/42 118/85/42 161/86/42
f 144/79/43 43/78/43 117/87/43 145/88/43
f 43/78/44 42/80/44 116/89/44 117/87/44
f 58/90/45 65/91/45 7/92/45
f 59/20/46 73/93/46 1/21/46
f 58/90/47 7/92/47 13/32/47
f 1/21/48 73/93/48 8/94/48
f 58/90/49 13/32/49 20/35/49
f 8/94/50 73/93/50 14/52/50
f 58/90/51 20/35/51 27/43/51
f 14/52/52 73/93/52 21/53/52
f 58/90/53 27/43/53 34/55/53
f 21/53/54 73/93/54 28/62/54
f 58/90/55 34/55/55 41/64/55
f 28/62/56 73/93/56 35/71/56
f 58/90/57 41/64/57 48/73/57
f 35/71/58 73/93/58 42/80/58
f 58/90/59 48/73/59 122/82/59
f 42/80/60 73/93/60 116/89/60
f 56/95/61 54/96/61 51/97/61 49/98/61
f 53/99/62 55/100/62 50/101/62 52/102/62
f 54/96/63 53/99/63 52/102/63 51/97/63
f 55/103/64 56/95/64 49/98/64 50/101/64
f 50/101/65 49/98/65 51/97/65 52/102/65
f 65/1/66 72/104/66 71/105/66 64/2/66
f 64/2/67 71/105/67 70/106/67 63/5/67
f 69/107/68 62/108/68 133/109/68 135/110/68
f 153/11/69 162/111/69 68/112/69 61/12/69
f 137/15/70 146/113/70 67/114/70 60/16/70
f 60/19/71 67/115/71 66/116/71 59/20/71
f 72/104/72 80/117/72 79/118/72 71/105/72
f 71/105/73 79/118/73 78/119/73 70/106/73
f 70/106/74 78/119/74 77/120/74 69/121/74
f 162/111/75 163/122/75 76/123/75 68/112/75
f 146/113/76 147/124/76 75/125/76 67/114/76
f 67/114/77 75/125/77 74/126/77 66/127/77
f 80/117/78 87/128/78 86/129/78 79/118/78
f 79/118/79 86/129/79 85/130/79 78/119/79
f 78/119/80 85/130/80 84/131/80 77/120/80
f 163/132/81 164/133/81 83/134/81 76/135/81
f 147/124/82 148/136/82 82/137/82 75/125/82
f 75/138/83 82/139/83 81/140/83 74/141/83
f 87/128/84 94/142/84 93/143/84 86/129/84
f 86/129/85 93/143/85 92/144/85 85/130/85
f 85/130/86 92/144/86 91/145/86 84/131/86
f 164/133/87 165/146/87 90/147/87 83/134/87
f 148/136/88 149/148/88 89/149/88 82/137/88
f 82/137/89 89/149/89 88/150/89 81/151/89
f 94/142/90 101/152/90 100/153/90 93/143/90
f 93/143/91 100/153/91 99/154/91 92/144/91
f 92/144/92 99/154/92 98/155/92 91/145/92
f 165/146/93 166/156/93 97/157/93 90/147/93
f 149/148/94 150/158/94 96/159/94 89/149/94
f 89/149/95 96/159/95 95/160/95 88/150/95
f 101/152/96 108/161/96 107/162/96 100/153/96
f 100/153/97 107/162/97 106/163/97 99/154/97
f 99/154/98 106/163/98 105/164/98 98/155/98
f 166/156/99 167/165/99 104/166/99 97/157/99
f 150/158/100 151/167/100 103/168/100 96/159/100
f 96/159/101 103/168/101 102/169/101 95/160/101
f 108/161/102 115/170/102 114/171/102 107/162/102
f 107/162/103 114/171/103 113/172/103 106/163/103
f 106/163/104 113/172/104 112/173/104 105/164/104
f 167/165/105 168/174/105 111/175/105 104/166/105
f 151/167/106 152/176/106 110/177/106 103/168/106
f 103/168/107 110/177/107 109/178/107 102/169/107
f 115/170/108 122/179/108 121/180/108 114/171/108
f 114/171/109 121/180/109 120/181/109 113/172/109
f 113/172/110 120/181/110 119/182/110 112/173/110
f 168/174/111 161/183/111 118/184/111 111/175/111
f 152/176/112 145/185/112 117/186/112 110/177/112
f 110/177/113 117/186/113 116/187/113 109/178/113
f 58/188/114 72/104/114 65/1/114
f 59/189/115 66/127/115 73/190/115
f 58/188/116 80/117/116 72/104/116
f 66/127/117 74/126/117 73/190/117
f 58/188/118 87/128/118 80/117/118
f 74/126/119 81/151/119 73/190/119
f 58/188/120 94/142/120 87/128/120
f 81/151/121 88/150/121 73/190/121
f 58/188/122 101/152/122 94/142/122
f 88/150/123 95/160/123 73/190/123
f 58/188/124 108/161/124 101/152/124
f 95/160/125 102/169/125 73/190/125
f 58/188/126 115/170/126 108/161/126
f 102/169/127 109/178/127 73/190/127
f 58/188/128 122/179/128 115/170/128
f 109/178/129 116/187/129 73/190/129
f 130/191/130 123/192/130 125/193/130 128/194/130
f 127/195/131 126/196/131 124/197/131 129/198/131
f 128/194/132 125/193/132 126/196/132 127/195/132
f 129/199/133 124/197/133 123/192/133 130/191/133
f 124/197/65 126/196/65 125/193/65 123/192/65
f 134/200/134 133/201/134 131/202/134 132/203/134
f 134/200/134 136/9/134 135/110/134 133/201/134
f 70/8/135 69/107/135 135/110/135 136/9/135
f 62/108/136 4/204/136 131/205/136 133/109/136
f 5/206/137 63/7/137 134/10/137 132/207/137
f 4/208/138 5/209/138 132/203/138 131/202/138
f 111/175/112 118/184/112 145/185/112 152/176/112
f 104/166/106 111/175/106 152/176/106 151/167/106
f 97/157/100 104/166/100 151/167/100 150/158/100
f 90/147/94 97/157/94 150/158/94 149/148/94
f 83/134/88 90/147/88 149/148/88 148/136/88
f 76/135/82 83/134/82 148/136/82 147/124/82
f 68/112/76 76/123/76 147/210/76 146/211/76
f 61/12/70 68/112/70 146/211/70 137/212/70
f 44/76/43 144/79/43 145/88/43 118/85/43
f 37/67/37 143/70/37 144/79/37 44/76/37
f 30/58/31 142/61/31 143/70/31 37/67/31
f 23/46/25 141/51/25 142/61/25 30/58/25
f 16/40/19 140/48/19 141/51/19 23/46/19
f 9/39/139 139/213/139 140/48/139 16/40/139
f 3/13/140 138/214/140 139/215/140 9/30/140
f 61/12/5 137/212/5 138/214/5 3/13/5
f 112/173/111 119/182/111 161/183/111 168/174/111
f 105/164/105 112/173/105 168/174/105 167/165/105
f 98/155/99 105/164/99 167/165/99 166/156/99
f 91/145/93 98/155/93 166/156/93 165/146/93
f 84/131/87 91/145/87 165/146/87 164/133/87
f 77/120/81 84/131/81 164/133/81 163/132/81
f 69/121/75 77/120/75 163/132/75 162/216/75
f 62/217/69 69/121/69 162/216/69 153/218/69
f 45/75/42 160/77/42 161/86/42 119/84/42
f 38/66/36 159/68/36 160/77/36 45/75/36
f 31/57/30 158/59/30 159/68/30 38/66/30
f 24/45/24 157/47/24 158/59/24 31/57/24
f 17/37/18 156/41/18 157/47/18 24/45/18
f 10/28/14 155/38/14 156/41/14 17/37/14
f 4/27/10 154/219/10 155/38/10 10/28/10
f 62/220/4 153/221/4 154/219/4 4/27/4
f 138/222/140 2/22/140 57/223/140 139/213/140
f 2/22/141 1/21/141 8/94/141 57/223/141
f 139/213/139 57/223/139 15/49/139 140/48/139
f 57/224/142 8/225/142 14/226/142 15/227/142
f 57/228/143 8/229/143 56/95/143 55/103/143
f 14/230/144 15/231/144 53/99/144 54/96/144
f 15/231/145 57/232/145 55/233/145 53/99/145
f 8/229/146 14/230/146 54/96/146 56/95/146
f 75/234/147 129/199/147 130/191/147 74/235/147
f 81/236/148 128/194/148 127/195/148 82/237/148
f 82/237/149 127/195/149 129/238/149 75/239/149
f 74/235/150 130/191/150 128/194/150 81/236/150
